<?xml version="1.0" encoding="UTF-8"?>
<svg width="386px" height="79px" viewBox="0 0 386 79" version="1.1" xmlns="http://www.w3.org/2000/svg" xmlns:xlink="http://www.w3.org/1999/xlink">
    <!-- Generator: Sketch 49 (51002) - http://www.bohemiancoding.com/sketch -->
    <title>Group 2</title>
    <desc>Created with Sketch.</desc>
    <defs></defs>
    <g id="Page-1" stroke="none" stroke-width="1" fill="none" fill-rule="evenodd">
        <g id="Artboard" transform="translate(-21.000000, -289.000000)">
            <g id="Group-2" transform="translate(21.000000, 289.000000)">
                <text id="ChainPal" font-family="Verdana-BoldItalic, Verdana" font-size="63" font-style="italic" font-weight="bold" letter-spacing="-3.36807704">
                    <tspan x="99" y="66" fill="#002C89">Chain</tspan>
                    <tspan x="281.126412" y="66" fill="#009BE1">Pal</tspan>
                </text>
                <g id="Group">
                    <path d="M81,30.5386165 C81,38.5180609 77.7245432,44.9525164 71.1735314,49.842176 C64.6225196,54.7318355 55.4646098,57.1766286 43.6995273,57.1766286 L37.1931128,57.1766286 L32.2018906,79 L15,79 L30.3301823,12 L54.172181,12 C58.5098124,12 62.2903282,12.2999746 65.513842,12.8999328 C68.7373558,13.4998911 71.5226081,14.5348035 73.8696826,16.0047011 C76.1870474,17.4745988 77.9547542,19.386937 79.1728562,21.741773 C80.3909581,24.096609 81,27.0288609 81,30.5386165 Z" id="P" fill="#009BE1"></path>
                    <path d="M26.7901235,65 C18.2285809,65 11.6232514,62.9201889 6.9739369,58.7605042 C2.32462239,54.6008195 0,48.6414954 0,40.8823529 C0,34.7478685 1.02765319,29.1877 3.0829904,24.2016807 C5.13832761,19.2156613 7.96614569,14.901979 11.5665295,11.2605042 C15.0818649,7.73107479 19.2987866,4.97199874 24.2174211,2.98319328 C29.1360557,0.994387815 34.3026707,0 39.7174211,0 C44.0832409,0 48.1371555,0.441172059 51.8792867,1.32352941 C55.6214179,2.20588676 58.9949553,3.50139202 62,5.21008403 L58.2578875,20.3781513 L56.3868313,20.3781513 C53.6936308,17.5209941 51.0146452,15.4201748 48.3497942,14.0756303 C45.6849432,12.7310857 42.5523728,12.0588235 38.951989,12.0588235 C32.6300553,12.0588235 27.4209167,14.5658013 23.324417,19.5798319 C19.2279173,24.5938626 17.1796982,30.9803534 17.1796982,38.7394958 C17.1796982,43.7255151 18.3136604,47.3389244 20.5816187,49.5798319 C22.849577,51.8207395 26.1664162,52.9411765 30.5322359,52.9411765 C34.444464,52.9411765 38.1156664,52.1638733 41.5459534,50.6092437 C44.9762403,49.0546141 48.2222069,47.0728412 51.2839506,44.6638655 L52.9849108,44.6638655 L49.2853224,59.6218487 C48.0095958,60.1260529 46.5212705,60.7352905 44.8203018,61.4495798 C43.1193331,62.1638691 41.4892625,62.7450958 39.9300412,63.1932773 C37.8888787,63.7815155 35.9824048,64.2296903 34.2105624,64.5378151 C32.43872,64.8459399 29.9652651,65 26.7901235,65 Z" id="C" fill="#002C89" opacity="0.849750906"></path>
                </g>
            </g>
        </g>
    </g>
</svg>